<?xml version="1.0" standalone="no"?>
<!DOCTYPE svg PUBLIC "-//W3C//DTD SVG 20010904//EN"
 "http://www.w3.org/TR/2001/REC-SVG-20010904/DTD/svg10.dtd">
<svg version="1.0" xmlns="http://www.w3.org/2000/svg"
 width="50.000000pt" height="50.000000pt" viewBox="0 0 383.000000 327.000000"
 preserveAspectRatio="xMidYMid meet">
<metadata>
Created by potrace 1.16, written by Peter Selinger 2001-2019
</metadata>
<g transform="translate(0.000000,327.000000) scale(0.100000,-0.100000)"
fill="#000000" stroke="none">
<path d="M1680 3105 c-335 -46 -625 -191 -863 -432 -279 -282 -427 -644 -427
-1043 0 -399 148 -761 427 -1043 124 -126 236 -206 398 -287 259 -129 524
-179 800 -150 658 67 1176 535 1316 1190 19 87 23 136 23 290 0 205 -17 312
-76 485 -226 663 -907 1085 -1598 990z m-483 -980 c58 -34 87 -92 80 -154 -3
-25 -27 -95 -52 -156 -80 -187 -80 -192 -11 -81 115 185 290 386 353 407 71
23 141 -62 150 -184 5 -59 2 -68 -61 -211 -36 -82 -65 -151 -63 -153 2 -2 27
34 54 79 113 184 267 375 356 439 79 58 156 26 191 -78 31 -92 25 -122 -80
-360 -53 -120 -114 -263 -136 -317 -38 -98 -60 -196 -42 -196 14 0 77 40 107
68 20 19 30 23 38 15 30 -30 -40 -121 -108 -144 -73 -24 -160 12 -204 85 -24
39 -25 137 -4 221 22 85 90 241 203 468 54 108 93 197 86 197 -29 0 -231 -246
-342 -417 -91 -140 -190 -330 -233 -448 -18 -49 -37 -96 -42 -102 -15 -21 -81
-15 -117 10 -87 59 -96 113 -45 262 42 123 193 482 254 603 23 45 41 85 41 89
0 16 -105 -97 -174 -187 -156 -202 -299 -447 -382 -650 -25 -63 -51 -121 -56
-127 -29 -35 -122 8 -152 70 -30 65 -22 105 65 311 209 493 237 566 216 566
-25 0 -184 -184 -270 -313 -45 -68 -45 -68 -61 -45 -25 35 -19 68 22 138 43
76 204 243 276 289 60 38 86 39 143 6z m1390 -356 c58 -21 123 -102 123 -152
0 -39 -22 -51 -57 -31 -27 16 -31 16 -66 -1 -73 -34 -179 -172 -233 -302 -25
-60 -32 -123 -14 -123 38 0 214 225 264 337 10 23 25 44 33 47 38 15 125 -55
139 -111 5 -17 -6 -67 -31 -144 -21 -66 -35 -122 -31 -126 18 -18 148 152 256
335 47 79 57 89 72 74 29 -29 -9 -130 -102 -267 -87 -128 -185 -215 -243 -215
-64 0 -167 75 -167 121 0 21 -6 17 -57 -32 -78 -75 -100 -89 -148 -89 -76 0
-185 106 -185 180 0 131 130 349 263 443 89 64 131 76 184 56z"/>
</g>
</svg>
